# xmcd CD database file
#
# Track frame offsets:
#	150
#	18424
#	43463
#	95354
#	111085
#	138875
#	166463
#	183431
#	201779
#	226670
#	244454
#	275111
#	293515
#	311994
#
# Disc length: 4479 seconds
#
# Revision: 0
# Processed by: cddbd v1.5PL3 Copyright (c) Steve Scherf et al.
# Submitted via: CDex 1.51
#
DISCID=cc117d0e
DTITLE=Blues Paradise Good Whiskey Blues vol.9 - A Collection Of Blues Songs From The State Of Tennessee/The Los Angeles
DYEAR=2000
DGENRE=Blues
TTITLE0=Kentucky Thunder - Love Is A Gift
TTITLE1=Red Eye Blues - Keep On Tryin'
TTITLE2=Mike Griffin and The Unknown Blues Band - The Blues Ain't Never Gonna Die
TTITLE3=Sid Herring's Blues Sauce - Move On
TTITLE4=Scott Holt Band - Ain't Gonna Be A Fool
TTITLE5=Blues Boyz - Murdered By Love
TTITLE6=Red Eye Blues - Just Another Fool
TTITLE7=Chris "Hammer" Smith - Born In Chicago
TTITLE8=Hula Monsters - She Don't Mind
TTITLE9=Robert Lucas - Talk To Me
TTITLE10=Chris "Hammer" Smith - You And Me
TTITLE11=Red Eye Blues - Crescent Smile
TTITLE12=Kentucky Thunder - Mama's Got Her Gun
TTITLE13=Jon Bare - Don't Let The Sun Pass You By
EXTD=YEAR: 2000
EXTT0=
EXTT1=
EXTT2=
EXTT3=
EXTT4=
EXTT5=
EXTT6=
EXTT7=
EXTT8=
EXTT9=
EXTT10=
EXTT11=
EXTT12=
EXTT13=
PLAYORDER=
